<?xml version="1.0" standalone="no"?>
<!DOCTYPE svg PUBLIC "-//W3C//DTD SVG 20010904//EN"
 "http://www.w3.org/TR/2001/REC-SVG-20010904/DTD/svg10.dtd">
<svg version="1.0" xmlns="http://www.w3.org/2000/svg"
 width="16.000000pt" height="16.000000pt" viewBox="0 0 16.000000 16.000000"
 preserveAspectRatio="xMidYMid meet">
<metadata>
Created by potrace 1.11, written by Peter Selinger 2001-2013
</metadata>
<g transform="translate(0.000000,16.000000) scale(0.005333,-0.005333)"
fill="#000000" stroke="none">
<path d="M190 1515 l0 -1325 165 0 165 0 2 793 3 793 307 -790 307 -791 140
-3 141 -3 0 1326 0 1325 -165 0 -165 0 -2 -799 -3 -799 -310 799 -310 799
-137 0 -138 0 0 -1325z"/>
<path d="M2480 1808 c0 -1097 -1 -1114 -51 -1194 -39 -64 -83 -88 -166 -92
-101 -6 -138 3 -183 44 -67 61 -83 119 -88 322 l-4 172 -164 0 -164 0 0 -102
c1 -301 55 -491 177 -619 201 -210 601 -210 797 1 60 66 113 165 142 270 17
61 19 134 22 1143 l3 1077 -161 0 -160 0 0 -1022z"/>
</g>
</svg>
